<?xml version="1.0" standalone="no"?>
<!DOCTYPE svg PUBLIC "-//W3C//DTD SVG 1.1//EN"
 "http://www.w3.org/Graphics/SVG/1.1/DTD/svg11.dtd">
<!-- Created with svg_stack (http://github.com/astraw/svg_stack) -->
<svg xmlns:sodipodi="http://sodipodi.sourceforge.net/DTD/sodipodi-0.dtd" xmlns="http://www.w3.org/2000/svg" version="1.1" width="512.0" height="512.0">
  <defs/>
  <g id="id0:id0" transform="matrix(1.25,0,0,1.25,0.0,0.0)"><g transform="translate(0.000000,409.600000) scale(0.040000,-0.040000)" fill="#ffffff" stroke="none">
<path d="M0 5120 l0 -5120 5120 0 5120 0 0 5120 0 5120 -5120 0 -5120 0 0 -5120z m2308 2193 c-76 -2 -200 -2 -275 0 -76 1 -14 3 137 3 151 0 213 -2 138 -3z m1610 0 c-75 -2 -201 -2 -280 0 -79 1 -17 3 137 3 154 0 218 -2 143 -3z m-1465 -820 c1 -456 6 -788 11 -775 4 12 12 22 17 22 5 0 9 6 9 14 0 8 6 16 13 19 9 3 9 9 1 24 -9 15 -8 23 7 42 15 18 19 19 19 7 0 -9 5 -16 10 -16 13 0 13 23 1 35 -6 6 -2 19 10 34 14 18 19 19 19 7 0 -9 5 -16 10 -16 13 0 13 23 1 35 -6 6 -2 19 10 34 14 18 19 19 19 7 0 -9 5 -16 10 -16 13 0 13 23 1 35 -6 6 -2 19 10 34 14 18 19 19 19 7 0 -9 5 -16 10 -16 13 0 13 23 -1 37 -8 8 -8 13 0 17 6 4 11 0 11 -8 0 -9 5 -16 10 -16 13 0 13 23 -1 37 -8 8 -8 13 0 17 6 4 11 0 11 -8 0 -9 3 -16 8 -16 13 0 30 49 26 73 -4 18 -3 19 4 3 8 -17 9 -17 24 6 9 13 14 37 12 54 -3 25 -3 26 4 5 l8 -24 17 26 c10 15 16 37 14 49 -2 13 -2 17 0 11 3 -7 8 -13 11 -13 14 0 32 41 29 63 -2 12 -2 16 0 10 3 -7 8 -13 11 -13 14 0 32 41 29 63 -2 12 -2 16 0 10 3 -7 8 -13 11 -13 14 0 32 41 29 63 -2 12 -2 16 0 10 3 -7 8 -13 11 -13 14 0 32 41 29 63 -2 12 -2 16 0 10 3 -7 8 -13 11 -13 14 0 32 41 29 63 -2 12 -2 16 0 10 3 -7 8 -13 11 -13 14 0 32 41 29 63 -2 12 -2 16 0 10 3 -7 8 -13 11 -13 14 0 33 42 27 61 -4 10 1 29 9 41 13 18 16 19 16 5 0 -9 5 -17 11 -17 7 0 9 10 5 25 -4 16 -1 34 9 48 12 18 15 19 15 4 0 -9 5 -17 11 -17 7 0 9 10 5 25 -4 16 -1 34 9 48 12 18 15 19 15 4 0 -9 5 -17 10 -17 13 0 13 23 1 36 -6 5 -2 18 10 33 14 18 19 19 19 7 0 -9 5 -16 10 -16 13 0 13 23 1 36 -6 5 -2 18 10 33 14 18 19 19 19 7 0 -9 5 -16 10 -16 13 0 13 23 1 36 -6 5 -2 18 10 33 14 18 19 19 19 7 0 -9 5 -16 10 -16 13 0 13 23 1 36 -6 5 -2 18 10 33 14 18 19 19 19 7 0 -9 5 -16 10 -16 13 0 13 23 1 36 -6 5 -2 18 10 33 14 18 19 19 19 7 0 -9 5 -16 10 -16 13 0 13 23 1 36 -6 5 -2 18 10 33 14 18 19 19 19 7 0 -9 5 -16 10 -16 13 0 13 23 0 36 -7 7 -4 16 10 29 11 10 20 13 20 7 0 -7 5 -12 10 -12 6 0 10 9 10 20 0 20 7 20 284 20 l284 0 6 -25 c4 -14 6 -208 6 -433 0 -224 0 -413 0 -419 0 -7 5 -13 10 -13 6 0 11 152 12 433 l3 432 2 -412 3 -413 1048 -2 1047 -3 -1047 -2 c-687 -2 -1048 -7 -1048 -13 0 -7 356 -10 1039 -10 572 0 1046 -3 1055 -6 14 -5 16 -38 16 -260 0 -163 4 -254 10 -254 6 0 10 91 10 252 0 138 3 249 6 246 3 -3 5 -108 4 -232 l-1 -226 875 0 c572 0 877 -3 881 -10 4 -7 -290 -10 -874 -10 -581 0 -881 -3 -881 -10 0 -7 302 -10 885 -10 l885 0 0 -1006 c0 -667 3 -1003 10 -999 7 4 10 349 10 1001 0 661 3 993 10 989 7 -4 10 -342 10 -981 l0 -974 163 -2 162 -2 -162 -3 c-219 -5 -217 -23 2 -23 l164 0 6 -32 c3 -18 4 -314 3 -658 l-3 -625 -290 0 -290 0 0 368 c0 202 -3 367 -7 367 -5 0 -9 -161 -10 -357 l-3 -358 -2 340 -3 340 -780 -3 -780 -2 -3 -343 -2 -342 -3 363 c-1 230 -6 362 -12 362 -6 0 -11 -134 -12 -367 l-3 -368 -285 0 -285 0 -3 658 -2 657 52 0 c45 0 79 7 138 28 8 3 -3 8 -25 12 -36 5 -37 6 -13 11 14 3 34 2 43 -3 9 -6 24 -6 33 -2 14 6 13 8 -8 15 -23 8 -23 8 5 5 37 -5 105 48 86 67 -8 8 -11 6 -11 -7 0 -9 -4 -15 -9 -11 -5 3 -11 -3 -13 -12 -2 -10 -6 -13 -10 -8 -3 6 12 30 33 54 25 28 39 38 39 27 0 -9 -4 -16 -10 -16 -5 0 -10 -7 -10 -15 0 -8 5 -15 10 -15 6 0 10 6 10 14 0 8 6 16 13 19 9 3 9 9 0 25 -8 13 -9 23 -3 27 6 3 10 -1 10 -9 0 -9 5 -16 10 -16 6 0 9 16 6 38 -2 20 -1 29 1 20 5 -19 23 -25 23 -7 0 6 -4 18 -9 27 -5 9 -5 26 0 37 7 17 8 17 8 -7 1 -16 6 -28 11 -28 12 0 13 40 1 59 -5 7 -6 23 -3 35 5 17 8 15 13 -14 5 -29 7 -32 14 -16 5 11 4 31 -2 47 -7 18 -8 40 -3 57 7 24 8 23 9 -16 1 -51 21 -48 21 3 0 19 4 37 10 40 6 3 10 25 10 49 0 23 4 46 9 52 5 5 12 41 15 79 4 39 11 124 17 190 15 171 23 1075 9 1075 -7 0 -10 -157 -10 -482 0 -265 -3 -478 -7 -474 -4 3 -6 218 -4 476 l2 470 -295 0 -296 0 0 -957 c0 -601 -4 -964 -10 -973 -6 -10 -10 333 -10 978 0 654 -3 992 -10 992 -7 0 -10 -338 -10 -994 l0 -995 -42 -6 c-24 -3 -189 -5 -368 -3 l-325 3 -3 998 c-1 653 -6 997 -12 997 -7 0 -10 -341 -10 -992 0 -645 -4 -988 -10 -978 -6 9 -10 372 -10 973 l0 957 -305 0 -305 0 -3 -527 -2 -528 -3 533 c-1 346 -5 532 -12 532 -7 0 -10 -180 -10 -519 0 -286 -3 -526 -6 -535 -5 -14 -40 -16 -290 -16 l-284 0 -2 793 c-2 496 -6 785 -12 772 -5 -11 -12 -22 -15 -25 -17 -14 -29 -50 -25 -71 4 -19 3 -20 -4 -5 -8 17 -9 17 -24 -6 -9 -13 -14 -37 -12 -54 3 -25 3 -26 -4 -5 l-8 24 -17 -26 c-10 -15 -16 -37 -14 -49 2 -13 2 -17 0 -10 -3 6 -8 12 -11 12 -14 0 -32 -41 -29 -63 2 -12 2 -16 0 -9 -3 6 -8 12 -11 12 -14 0 -32 -41 -29 -63 2 -12 2 -16 0 -9 -3 6 -8 12 -11 12 -14 0 -32 -41 -29 -63 2 -12 2 -16 0 -9 -3 6 -8 12 -11 12 -14 0 -32 -41 -29 -63 2 -12 2 -16 0 -9 -3 6 -8 12 -11 12 -14 0 -32 -41 -29 -63 2 -12 2 -16 0 -9 -3 6 -8 12 -11 12 -14 0 -32 -41 -29 -63 2 -12 2 -16 0 -9 -3 6 -8 12 -11 12 -14 0 -33 -42 -27 -61 4 -10 -1 -29 -9 -41 -13 -18 -16 -19 -16 -5 0 9 -5 17 -11 17 -7 0 -9 -10 -5 -25 4 -16 1 -34 -9 -48 -12 -18 -15 -19 -15 -4 0 9 -5 17 -11 17 -7 0 -9 -10 -5 -25 4 -16 1 -34 -9 -48 -12 -18 -15 -19 -15 -4 0 9 -4 17 -10 17 -13 0 -13 -23 -1 -36 6 -5 2 -18 -10 -33 -14 -18 -19 -19 -19 -7 0 9 -4 16 -10 16 -13 0 -13 -23 -1 -36 6 -5 2 -18 -10 -33 -14 -18 -19 -19 -19 -7 0 9 -4 16 -10 16 -13 0 -13 -23 -1 -36 6 -5 2 -18 -10 -33 -14 -18 -19 -19 -19 -7 0 9 -4 16 -10 16 -13 0 -13 -23 -1 -36 6 -5 2 -18 -10 -33 -14 -18 -19 -19 -19 -7 0 9 -4 16 -10 16 -13 0 -13 -23 -1 -36 6 -5 2 -18 -10 -33 -14 -18 -19 -19 -19 -7 0 9 -4 16 -10 16 -13 0 -13 -23 -1 -36 6 -5 2 -18 -10 -33 -14 -18 -19 -19 -19 -7 0 9 -4 16 -10 16 -13 0 -13 -23 -1 -36 6 -5 3 -18 -9 -34 -16 -20 -20 -22 -20 -7 0 9 5 17 10 17 6 0 10 7 10 15 0 8 -4 15 -10 15 -5 0 -10 -7 -10 -15 0 -8 -5 -15 -11 -15 -6 0 -9 -12 -6 -27 2 -16 2 -22 0 -15 -8 23 -23 1 -18 -26 4 -20 3 -22 -3 -8 -8 17 -9 17 -24 -7 -9 -13 -15 -35 -12 -48 4 -19 3 -20 -4 -5 -7 17 -9 16 -25 -8 -10 -14 -16 -36 -14 -48 2 -13 2 -17 0 -10 -3 6 -8 12 -11 12 -14 0 -32 -41 -29 -63 2 -12 2 -16 0 -9 -3 6 -8 12 -11 12 -14 0 -32 -41 -29 -63 2 -12 2 -16 0 -9 -7 19 -18 14 -33 -13 l-14 -25 -280 2 -281 3 -3 1255 c-1 690 0 1265 3 1278 l5 22 280 0 280 0 3 -797z m25 -728 c-5 -5 -7 335 -6 755 l3 765 5 -755 c3 -415 2 -759 -2 -765z m-611 -392 c-1 -351 -2 -66 -2 632 0 699 1 986 2 638 2 -347 2 -919 0 -1270z m1200 1285 c-3 -8 -6 -5 -6 6 -1 11 2 17 5 13 3 -3 4 -12 1 -19z m-40 -60 c-3 -8 -6 -5 -6 6 -1 11 2 17 5 13 3 -3 4 -12 1 -19z m-40 -60 c-3 -8 -6 -5 -6 6 -1 11 2 17 5 13 3 -3 4 -12 1 -19z m-40 -60 c-3 -8 -6 -5 -6 6 -1 11 2 17 5 13 3 -3 4 -12 1 -19z m-40 -60 c-3 -8 -6 -5 -6 6 -1 11 2 17 5 13 3 -3 4 -12 1 -19z m-40 -60 c-3 -8 -6 -5 -6 6 -1 11 2 17 5 13 3 -3 4 -12 1 -19z m-40 -60 c-3 -8 -6 -5 -6 6 -1 11 2 17 5 13 3 -3 4 -12 1 -19z m-40 -60 c-3 -8 -6 -5 -6 6 -1 11 2 17 5 13 3 -3 4 -12 1 -19z m681 -750 c-1 -414 -4 -690 -5 -613 -7 349 -7 1365 0 1365 4 0 6 -339 5 -752z m-718 686 c0 -8 -5 -12 -10 -9 -6 4 -8 11 -5 16 9 14 15 11 15 -7z m675 -3 c3 -5 1 -12 -5 -16 -5 -3 -10 1 -10 9 0 18 6 21 15 7z m-715 -57 c0 -8 -5 -12 -10 -9 -6 4 -8 11 -5 16 9 14 15 11 15 -7z m667 -26 c-3 -8 -6 -5 -6 6 -1 11 2 17 5 13 3 -3 4 -12 1 -19z m-40 -60 c-3 -8 -6 -5 -6 6 -1 11 2 17 5 13 3 -3 4 -12 1 -19z m-40 -60 c-3 -8 -6 -5 -6 6 -1 11 2 17 5 13 3 -3 4 -12 1 -19z m-40 -60 c-3 -8 -6 -5 -6 6 -1 11 2 17 5 13 3 -3 4 -12 1 -19z m-40 -60 c-3 -8 -6 -5 -6 6 -1 11 2 17 5 13 3 -3 4 -12 1 -19z m-40 -60 c-3 -8 -6 -5 -6 6 -1 11 2 17 5 13 3 -3 4 -12 1 -19z m-40 -60 c-3 -8 -6 -5 -6 6 -1 11 2 17 5 13 3 -3 4 -12 1 -19z m-40 -60 c-3 -8 -6 -5 -6 6 -1 11 2 17 5 13 3 -3 4 -12 1 -19z m-452 -677 c3 -5 1 -12 -5 -16 -5 -3 -10 1 -10 9 0 18 6 21 15 7z m-42 -76 c-7 -21 -13 -19 -13 6 0 11 4 18 10 14 5 -3 7 -12 3 -20z m-46 -67 c-3 -8 -6 -5 -6 6 -1 11 2 17 5 13 3 -3 4 -12 1 -19z m3553 -130 c0 -72 -4 -117 -9 -108 -8 14 -3 230 5 230 2 0 4 -55 4 -122z m-3593 70 c-3 -8 -6 -5 -6 6 -1 11 2 17 5 13 3 -3 4 -12 1 -19z m-77 -88 c-20 -13 -537 -13 -545 0 -4 7 91 10 277 10 186 0 278 -4 268 -10z m1605 0 c-8 -13 -515 -13 -535 0 -10 6 80 10 263 10 183 0 276 -3 272 -10z m2045 -172 c0 -42 -4 -67 -8 -58 -8 15 -4 130 4 130 2 0 4 -33 4 -72z m-20 -120 c0 -29 -4 -48 -9 -42 -8 8 -3 94 5 94 2 0 4 -23 4 -52z m-330 -494 c0 -2 -28 -3 -62 -2 -61 1 -61 1 -18 7 42 6 80 3 80 -5z m-153 -1001 c-1 -180 -2 -35 -2 322 0 358 1 505 2 328 2 -177 2 -469 0 -650z m2830 0 c-1 -175 -2 -32 -2 317 0 349 1 492 2 318 2 -175 2 -461 0 -635z m-3119 890 c-97 -2 -259 -2 -360 0 -101 1 -21 2 177 2 198 0 280 -1 183 -2z m740 -1260 c-76 -2 -200 -2 -275 0 -76 1 -14 3 137 3 151 0 213 -2 138 -3z m2190 0 c-76 -2 -200 -2 -275 0 -76 1 -14 3 137 3 151 0 213 -2 138 -3z"/>
<path d="M3450 7235 c0 -8 5 -15 10 -15 6 0 10 7 10 15 0 8 -4 15 -10 15 -5 0 -10 -7 -10 -15z"/>
<path d="M3410 7175 c0 -8 5 -15 10 -15 6 0 10 7 10 15 0 8 -4 15 -10 15 -5 0 -10 -7 -10 -15z"/>
<path d="M3370 7115 c0 -8 5 -15 10 -15 6 0 10 7 10 15 0 8 -4 15 -10 15 -5 0 -10 -7 -10 -15z"/>
<path d="M3330 7055 c0 -8 5 -15 10 -15 6 0 10 7 10 15 0 8 -4 15 -10 15 -5 0 -10 -7 -10 -15z"/>
<path d="M3290 6995 c0 -8 5 -15 10 -15 6 0 10 7 10 15 0 8 -4 15 -10 15 -5 0 -10 -7 -10 -15z"/>
<path d="M3250 6935 c0 -8 5 -15 10 -15 6 0 10 7 10 15 0 8 -4 15 -10 15 -5 0 -10 -7 -10 -15z"/>
<path d="M3210 6875 c0 -8 5 -15 10 -15 6 0 10 7 10 15 0 8 -4 15 -10 15 -5 0 -10 -7 -10 -15z"/>
<path d="M3170 6815 c0 -8 5 -15 10 -15 6 0 10 7 10 15 0 8 -4 15 -10 15 -5 0 -10 -7 -10 -15z"/>
<path d="M3130 6755 c0 -8 5 -15 10 -15 6 0 10 7 10 15 0 8 -4 15 -10 15 -5 0 -10 -7 -10 -15z"/>
<path d="M3090 6695 c0 -8 5 -15 10 -15 6 0 10 7 10 15 0 8 -4 15 -10 15 -5 0 -10 -7 -10 -15z"/>
<path d="M2630 5995 c0 -8 5 -15 10 -15 6 0 10 7 10 15 0 8 -4 15 -10 15 -5 0 -10 -7 -10 -15z"/>
<path d="M2590 5935 c0 -8 5 -15 10 -15 6 0 10 7 10 15 0 8 -4 15 -10 15 -5 0 -10 -7 -10 -15z"/>
<path d="M2550 5875 c0 -8 5 -15 10 -15 6 0 10 7 10 15 0 8 -4 15 -10 15 -5 0 -10 -7 -10 -15z"/>
<path d="M2510 5815 c0 -8 5 -15 10 -15 6 0 10 7 10 15 0 8 -4 15 -10 15 -5 0 -10 -7 -10 -15z"/>
<path d="M4060 5820 c0 -5 127 -9 325 -10 215 0 325 3 325 10 0 7 -110 10 -325 10 -199 0 -325 -4 -325 -10z"/>
<path d="M5530 5820 c0 -6 105 -10 295 -10 190 0 295 4 295 10 0 6 -105 10 -295 10 -190 0 -295 -4 -295 -10z"/>
<path d="M6130 5820 c0 -5 5 -10 10 -10 6 0 10 5 10 10 0 6 -4 10 -10 10 -5 0 -10 -4 -10 -10z"/>
<path d="M3050 5645 c0 -8 5 -15 10 -15 6 0 10 7 10 15 0 8 -4 15 -10 15 -5 0 -10 -7 -10 -15z"/>
<path d="M3010 5585 c0 -8 5 -15 10 -15 6 0 10 7 10 15 0 8 -4 15 -10 15 -5 0 -10 -7 -10 -15z"/>
<path d="M2970 5525 c0 -8 5 -15 10 -15 6 0 10 7 10 15 0 8 -4 15 -10 15 -5 0 -10 -7 -10 -15z"/>
<path d="M2930 5465 c0 -8 5 -15 10 -15 6 0 10 7 10 15 0 8 -4 15 -10 15 -5 0 -10 -7 -10 -15z"/>
<path d="M2890 5405 c0 -8 5 -15 10 -15 6 0 10 7 10 15 0 8 -4 15 -10 15 -5 0 -10 -7 -10 -15z"/>
<path d="M2850 5345 c0 -8 5 -15 10 -15 6 0 10 7 10 15 0 8 -4 15 -10 15 -5 0 -10 -7 -10 -15z"/>
<path d="M6735 4600 c0 -390 3 -710 8 -710 4 0 7 320 7 710 0 391 -3 710 -7 710 -5 0 -8 -319 -8 -710z"/>
<path d="M6760 5300 c0 -6 113 -10 320 -10 207 0 320 4 320 10 0 6 -113 10 -320 10 -207 0 -320 -4 -320 -10z"/>
<path d="M7410 4600 c0 -467 3 -710 10 -710 7 0 10 243 10 710 0 467 -3 710 -10 710 -7 0 -10 -243 -10 -710z"/>
<path d="M2810 5285 c0 -8 5 -15 10 -15 6 0 10 7 10 15 0 8 -4 15 -10 15 -5 0 -10 -7 -10 -15z"/>
<path d="M6760 4600 l0 -679 318 2 317 2 0 675 0 675 -317 2 -318 2 0 -679z"/>
<path d="M2770 5225 c0 -8 5 -15 10 -15 6 0 10 7 10 15 0 8 -4 15 -10 15 -5 0 -10 -7 -10 -15z"/>
<path d="M2730 5165 c0 -8 5 -15 10 -15 6 0 10 7 10 15 0 8 -4 15 -10 15 -5 0 -10 -7 -10 -15z"/>
<path d="M6760 3900 c0 -6 113 -10 320 -10 207 0 320 4 320 10 0 6 -113 10 -320 10 -207 0 -320 -4 -320 -10z"/>
<path d="M6220 3300 c0 -7 267 -10 780 -10 513 0 780 3 780 10 0 7 -267 10 -780 10 -513 0 -780 -3 -780 -10z"/>
</g>
</g>
  <g id="id1:id1" transform="matrix(1.25,0,0,1.25,0.0,0.0)"><g transform="translate(0.000000,409.600000) scale(0.040000,-0.040000)" fill="#fcfcfc" stroke="none">
<path d="M2033 7313 c75 -2 199 -2 275 0 75 1 13 3 -138 3 -151 0 -213 -2 -137 -3z"/>
<path d="M3638 7313 c79 -2 205 -2 280 0 75 1 11 3 -143 3 -154 0 -216 -2 -137 -3z"/>
<path d="M2473 6520 c-1 -421 1 -758 5 -750 4 8 5 353 2 765 l-5 750 -2 -765z"/>
<path d="M1865 6005 c0 -698 1 -983 2 -632 2 351 2 923 0 1270 -1 348 -2 61 -2 -638z"/>
<path d="M1885 6005 c0 -698 1 -983 2 -632 2 351 2 923 0 1270 -1 348 -2 61 -2 -638z"/>
<path d="M3446 7251 c-10 -10 -14 -21 -9 -24 5 -3 13 6 20 19 13 29 11 30 -11 5z"/>
<path d="M4065 6845 c0 -231 1 -324 2 -207 2 117 2 306 0 420 -1 114 -2 18 -2 -213z"/>
<path d="M4092 6833 l-2 -433 1053 2 1052 3 -1047 2 c-684 2 -1048 7 -1048 13 0 6 364 11 1048 13 l1047 2 -1047 3 -1048 2 -3 413 -2 412 -3 -432z"/>
<path d="M3408 7195 c-9 -12 -14 -25 -11 -29 3 -3 12 6 20 21 17 33 13 38 -9 8z"/>
<path d="M3368 7135 c-9 -12 -14 -25 -11 -29 3 -3 12 6 20 21 17 33 13 38 -9 8z"/>
<path d="M3328 7075 c-9 -12 -14 -25 -11 -29 3 -3 12 6 20 21 17 33 13 38 -9 8z"/>
<path d="M3288 7015 c-9 -12 -14 -25 -11 -29 3 -3 12 6 20 21 17 33 13 38 -9 8z"/>
<path d="M3248 6955 c-9 -12 -14 -25 -11 -29 3 -3 12 6 20 21 17 33 13 38 -9 8z"/>
<path d="M3208 6895 c-9 -12 -14 -25 -11 -29 3 -3 12 6 20 21 17 33 13 38 -9 8z"/>
<path d="M3170 6835 c-11 -20 -11 -28 -1 -38 10 -9 11 -8 5 6 -3 9 -1 24 6 32 7 9 11 18 8 20 -3 3 -11 -6 -18 -20z"/>
<path d="M3130 6775 c-10 -19 -11 -28 -2 -37 8 -8 9 -5 5 12 -5 18 -3 22 9 17 12 -4 14 -1 11 14 -7 24 -7 24 -23 -6z"/>
<path d="M3090 6715 c-10 -19 -11 -28 -2 -37 8 -8 9 -5 5 12 -5 18 -3 22 9 17 12 -4 14 -1 11 14 -7 24 -7 24 -23 -6z"/>
<path d="M3061 6664 c0 -11 3 -14 6 -6 3 7 2 16 -1 19 -3 4 -6 -2 -5 -13z"/>
<path d="M3040 6636 c0 -8 4 -17 9 -20 5 -4 7 3 4 14 -6 23 -13 26 -13 6z"/>
<path d="M3021 6604 c0 -11 3 -14 6 -6 3 7 2 16 -1 19 -3 4 -6 -2 -5 -13z"/>
<path d="M3000 6576 c0 -8 4 -17 9 -20 5 -4 7 3 4 14 -6 23 -13 26 -13 6z"/>
<path d="M2981 6544 c0 -11 3 -14 6 -6 3 7 2 16 -1 19 -3 4 -6 -2 -5 -13z"/>
<path d="M2960 6516 c0 -8 4 -17 9 -20 5 -4 7 3 4 14 -6 23 -13 26 -13 6z"/>
<path d="M2941 6484 c0 -11 3 -14 6 -6 3 7 2 16 -1 19 -3 4 -6 -2 -5 -13z"/>
<path d="M2920 6456 c0 -8 4 -17 9 -20 5 -4 7 3 4 14 -6 23 -13 26 -13 6z"/>
<path d="M2901 6424 c0 -11 3 -14 6 -6 3 7 2 16 -1 19 -3 4 -6 -2 -5 -13z"/>
<path d="M2880 6396 c0 -8 4 -17 9 -20 5 -4 7 3 4 14 -6 23 -13 26 -13 6z"/>
<path d="M6231 6139 c1 -139 3 -248 6 -241 4 9 190 12 884 12 584 0 878 3 874 10 -4 7 -309 10 -881 10 l-875 0 1 226 c1 124 -1 229 -5 232 -3 3 -5 -109 -4 -249z"/>
<path d="M2861 6364 c0 -11 3 -14 6 -6 3 7 2 16 -1 19 -3 4 -6 -2 -5 -13z"/>
<path d="M2840 6336 c0 -8 4 -17 9 -20 5 -4 7 3 4 14 -6 23 -13 26 -13 6z"/>
<path d="M2821 6304 c0 -11 3 -14 6 -6 3 7 2 16 -1 19 -3 4 -6 -2 -5 -13z"/>
<path d="M2800 6276 c0 -8 4 -17 9 -20 5 -4 7 3 4 14 -6 23 -13 26 -13 6z"/>
<path d="M2781 6244 c0 -11 3 -14 6 -6 3 7 2 16 -1 19 -3 4 -6 -2 -5 -13z"/>
<path d="M3458 5628 c1 -337 3 -676 5 -753 1 -77 4 199 5 613 1 413 -1 752 -5 752 -5 0 -7 -276 -5 -612z"/>
<path d="M2762 6210 c0 -14 2 -19 5 -12 2 6 2 18 0 25 -3 6 -5 1 -5 -13z"/>
<path d="M3431 6194 c0 -11 3 -14 6 -6 3 7 2 16 -1 19 -3 4 -6 -2 -5 -13z"/>
<path d="M2735 6181 c-3 -5 -1 -12 5 -16 5 -3 10 1 10 9 0 18 -6 21 -15 7z"/>
<path d="M3410 6164 c0 -8 5 -12 10 -9 6 4 8 11 5 16 -9 14 -15 11 -15 -7z"/>
<path d="M2721 6144 c0 -11 3 -14 6 -6 3 7 2 16 -1 19 -3 4 -6 -2 -5 -13z"/>
<path d="M3392 6130 c0 -14 2 -19 5 -12 2 6 2 18 0 25 -3 6 -5 1 -5 -13z"/>
<path d="M2695 6121 c-3 -5 -1 -12 5 -16 5 -3 10 1 10 9 0 18 -6 21 -15 7z"/>
<path d="M3371 6094 c0 -11 3 -14 6 -6 3 7 2 16 -1 19 -3 4 -6 -2 -5 -13z"/>
<path d="M2676 6091 c-3 -5 1 -14 8 -20 12 -10 13 -8 9 8 -6 23 -9 25 -17 12z"/>
<path d="M3347 6069 c4 -13 8 -18 11 -10 2 7 -1 18 -6 23 -8 8 -9 4 -5 -13z"/>
<path d="M2655 6061 c-3 -5 -1 -12 5 -16 5 -3 10 1 10 9 0 18 -6 21 -15 7z"/>
<path d="M3331 6034 c0 -11 3 -14 6 -6 3 7 2 16 -1 19 -3 4 -6 -2 -5 -13z"/>
<path d="M2628 6015 c-9 -12 -14 -25 -11 -29 3 -3 12 6 20 21 17 33 13 38 -9 8z"/>
<path d="M3307 6009 c4 -13 8 -18 11 -10 2 7 -1 18 -6 23 -8 8 -9 4 -5 -13z"/>
<path d="M3291 5974 c0 -11 3 -14 6 -6 3 7 2 16 -1 19 -3 4 -6 -2 -5 -13z"/>
<path d="M2588 5955 c-9 -12 -14 -25 -11 -29 3 -3 12 6 20 21 17 33 13 38 -9 8z"/>
<path d="M3267 5949 c4 -13 8 -18 11 -10 2 7 -1 18 -6 23 -8 8 -9 4 -5 -13z"/>
<path d="M3251 5914 c0 -11 3 -14 6 -6 3 7 2 16 -1 19 -3 4 -6 -2 -5 -13z"/>
<path d="M2548 5895 c-9 -12 -14 -25 -11 -29 3 -3 12 6 20 21 17 33 13 38 -9 8z"/>
<path d="M3227 5889 c4 -13 8 -18 11 -10 2 7 -1 18 -6 23 -8 8 -9 4 -5 -13z"/>
<path d="M8030 4890 c0 -545 -2 -995 -5 -1000 -3 -6 1 -7 9 -4 9 3 16 10 16 15 0 5 73 10 163 12 l162 3 -162 2 -163 2 0 974 c0 648 -3 977 -10 981 -7 4 -10 -317 -10 -985z"/>
<path d="M3211 5854 c0 -11 3 -14 6 -6 3 7 2 16 -1 19 -3 4 -6 -2 -5 -13z"/>
<path d="M2508 5835 c-9 -12 -14 -25 -11 -29 3 -3 12 6 20 21 17 33 13 38 -9 8z"/>
<path d="M3187 5829 c4 -13 8 -18 11 -10 2 7 -1 18 -6 23 -8 8 -9 4 -5 -13z"/>
<path d="M4710 5820 c0 -7 -104 -10 -307 -10 -170 0 -316 0 -325 0 -17 0 -18 -31 -16 -532 l3 -533 2 528 c2 340 7 527 13 527 6 0 11 -189 12 -532 l3 -533 2 528 3 527 305 0 305 0 0 -957 c0 -605 4 -964 10 -973 6 -10 10 329 10 978 0 642 -4 992 -10 992 -6 0 -10 -5 -10 -10z"/>
<path d="M5510 4838 c0 -649 4 -988 10 -978 6 9 10 368 10 973 l0 957 296 0 295 0 -2 -470 c-2 -258 0 -473 4 -476 4 -4 7 209 7 473 0 418 2 482 15 487 8 3 15 11 15 18 0 9 -3 9 -10 -2 -9 -13 -11 -13 -20 0 -6 10 -10 11 -10 3 0 -10 -66 -13 -295 -13 -190 0 -295 4 -295 10 0 6 -4 10 -10 10 -6 0 -10 -350 -10 -992z"/>
<path d="M3171 5794 c0 -11 3 -14 6 -6 3 7 2 16 -1 19 -3 4 -6 -2 -5 -13z"/>
<path d="M3147 5769 c4 -13 8 -18 11 -10 2 7 -1 18 -6 23 -8 8 -9 4 -5 -13z"/>
<path d="M3131 5734 c0 -11 3 -14 6 -6 3 7 2 16 -1 19 -3 4 -6 -2 -5 -13z"/>
<path d="M3107 5709 c4 -13 8 -18 11 -10 2 7 -1 18 -6 23 -8 8 -9 4 -5 -13z"/>
<path d="M3091 5674 c0 -11 3 -14 6 -6 3 7 2 16 -1 19 -3 4 -6 -2 -5 -13z"/>
<path d="M3068 5648 c4 -16 2 -20 -10 -15 -12 4 -14 1 -11 -14 5 -18 6 -19 19 -2 16 21 18 40 5 47 -5 4 -7 -4 -3 -16z"/>
<path d="M3028 5588 c4 -16 2 -20 -10 -15 -12 4 -14 1 -11 -14 5 -18 6 -19 19 -2 16 21 18 40 5 47 -5 4 -7 -4 -3 -16z"/>
<path d="M2986 5537 c3 -9 1 -24 -6 -32 -7 -9 -11 -18 -8 -20 3 -3 11 6 18 20 11 20 11 28 1 38 -10 9 -11 8 -5 -6z"/>
<path d="M2942 5452 c-15 -33 -11 -36 11 -7 9 13 14 26 9 29 -4 2 -13 -7 -20 -22z"/>
<path d="M2902 5392 c-15 -33 -11 -36 11 -7 9 13 14 26 9 29 -4 2 -13 -7 -20 -22z"/>
<path d="M2862 5332 c-15 -33 -11 -36 11 -7 9 13 14 26 9 29 -4 2 -13 -7 -20 -22z"/>
<path d="M6752 4600 c0 -393 2 -709 5 -702 4 9 78 12 323 12 245 0 319 -3 323 -12 3 -7 5 309 5 702 0 393 -2 709 -5 703 -4 -10 -78 -13 -323 -13 -245 0 -319 3 -323 13 -3 6 -5 -310 -5 -703z m643 0 l0 -675 -317 -2 -318 -2 0 679 0 679 318 -2 317 -2 0 -675z"/>
<path d="M2822 5272 c-15 -33 -11 -36 11 -7 9 13 14 26 9 29 -4 2 -13 -7 -20 -22z"/>
<path d="M6735 4600 c0 -382 1 -539 2 -347 2 191 2 503 0 695 -1 191 -2 34 -2 -348z"/>
<path d="M2782 5212 c-15 -33 -11 -36 11 -7 9 13 14 26 9 29 -4 2 -13 -7 -20 -22z"/>
<path d="M2742 5152 c-15 -33 -11 -36 11 -7 9 13 14 26 9 29 -4 2 -13 -7 -20 -22z"/>
<path d="M2702 5092 c-16 -34 -9 -39 12 -8 8 14 12 27 8 30 -4 2 -13 -7 -20 -22z"/>
<path d="M2671 5044 c0 -11 3 -14 6 -6 3 7 2 16 -1 19 -3 4 -6 -2 -5 -13z"/>
<path d="M2651 5014 c0 -11 3 -14 6 -6 3 7 2 16 -1 19 -3 4 -6 -2 -5 -13z"/>
<path d="M2630 4984 c0 -8 5 -12 10 -9 6 4 8 11 5 16 -9 14 -15 11 -15 -7z"/>
<path d="M2611 4954 c0 -11 3 -14 6 -6 3 7 2 16 -1 19 -3 4 -6 -2 -5 -13z"/>
<path d="M2590 4921 c0 -25 6 -27 13 -6 4 8 2 17 -3 20 -6 4 -10 -3 -10 -14z"/>
<path d="M2567 4889 c4 -13 8 -18 11 -10 2 7 -1 18 -6 23 -8 8 -9 4 -5 -13z"/>
<path d="M2551 4854 c0 -11 3 -14 6 -6 3 7 2 16 -1 19 -3 4 -6 -2 -5 -13z"/>
<path d="M2527 4829 c4 -13 8 -18 11 -10 2 7 -1 18 -6 23 -8 8 -9 4 -5 -13z"/>
<path d="M6098 4733 c-3 -60 -2 -115 3 -123 5 -9 9 36 9 108 0 67 -2 122 -4 122 -2 0 -6 -48 -8 -107z"/>
<path d="M6132 4805 c0 -16 2 -22 5 -12 2 9 2 23 0 30 -3 6 -5 -1 -5 -18z"/>
<path d="M2511 4794 c0 -11 3 -14 6 -6 3 7 2 16 -1 19 -3 4 -6 -2 -5 -13z"/>
<path d="M2487 4769 c4 -13 8 -18 11 -10 2 7 -1 18 -6 23 -8 8 -9 4 -5 -13z"/>
<path d="M1895 4700 c8 -13 525 -13 545 0 10 6 -82 10 -268 10 -186 0 -281 -3 -277 -10z"/>
<path d="M3510 4700 c20 -13 527 -13 535 0 4 7 -89 10 -272 10 -183 0 -273 -4 -263 -10z"/>
<path d="M6078 4543 c-2 -32 -1 -65 4 -73 4 -9 8 16 8 58 0 39 -2 72 -4 72 -2 0 -6 -26 -8 -57z"/>
<path d="M6111 4574 c0 -11 3 -14 6 -6 3 7 2 16 -1 19 -3 4 -6 -2 -5 -13z"/>
<path d="M6058 4418 c-3 -24 -1 -47 3 -52 5 -6 9 13 9 42 0 63 -6 68 -12 10z"/>
<path d="M6037 4323 c-3 -16 -1 -35 4 -43 6 -10 8 -2 9 28 0 48 -5 55 -13 15z"/>
<path d="M6017 4251 c-2 -10 -1 -25 4 -32 6 -10 9 -4 9 19 0 36 -5 42 -13 13z"/>
<path d="M5998 4194 c-3 -12 -2 -28 3 -35 12 -20 16 -8 9 26 -5 27 -6 28 -12 9z"/>
<path d="M5980 4135 c0 -14 4 -25 9 -25 4 0 6 11 3 25 -2 14 -6 25 -8 25 -2 0 -4 -11 -4 -25z"/>
<path d="M5955 4101 c-3 -5 -1 -12 5 -16 5 -3 10 1 10 9 0 18 -6 21 -15 7z"/>
<path d="M5907 4035 c-21 -25 -33 -46 -27 -50 5 -3 10 1 10 10 0 9 5 13 10 10 6 -3 10 1 10 10 0 10 5 13 13 9 6 -4 9 -3 4 1 -4 5 0 17 10 27 9 10 14 20 12 22 -2 2 -21 -15 -42 -39z"/>
<path d="M5810 3956 c0 -2 11 -6 25 -8 13 -3 22 -1 19 3 -5 9 -44 13 -44 5z"/>
<path d="M5760 3940 c-21 -6 -19 -7 18 -11 23 -3 42 -3 42 -2 0 10 -40 19 -60 13z"/>
<path d="M5660 3919 c-43 -6 -43 -6 18 -7 61 -2 79 2 45 10 -10 2 -38 1 -63 -3z"/>
<path d="M5585 3235 c0 -357 1 -502 2 -322 2 181 2 473 0 650 -1 177 -2 30 -2 -328z"/>
<path d="M8382 3223 c-1 -502 -5 -642 -14 -646 -10 -4 -10 -6 0 -6 7 -1 15 5 17 12 3 6 4 298 3 647 l-3 635 -3 -642z"/>
<path d="M8415 3230 c0 -349 1 -492 2 -317 2 174 2 460 0 635 -1 174 -2 31 -2 -318z"/>
<path d="M4759 3837 c4 -4 162 -6 352 -5 l344 3 -352 5 c-194 3 -349 2 -344 -3z"/>
<path d="M4938 3803 c101 -2 263 -2 360 0 97 1 15 2 -183 2 -198 0 -278 -1 -177 -2z"/>
<path d="M6213 2955 l2 -360 2 337 3 338 780 2 780 3 3 -335 2 -335 2 355 c0 195 -1 349 -4 343 -7 -19 -1559 -19 -1566 0 -3 6 -4 -150 -4 -348z"/>
<path d="M7802 2933 c-1 -193 1 -354 6 -356 6 -5 6 267 -1 583 -1 69 -4 -33 -5 -227z"/>
<path d="M5617 2579 c7 -7 15 -10 18 -7 3 3 -2 9 -12 12 -14 6 -15 5 -6 -5z"/>
<path d="M5763 2543 c75 -2 199 -2 275 0 75 1 13 3 -138 3 -151 0 -213 -2 -137 -3z"/>
<path d="M7953 2543 c75 -2 199 -2 275 0 75 1 13 3 -138 3 -151 0 -213 -2 -137 -3z"/>
</g>
</g>
  <g id="id2:id2" transform="matrix(1.25,0,0,1.25,0.0,0.0)"><g transform="translate(0.000000,409.600000) scale(0.040000,-0.040000)" fill="#f1f1f1" stroke="none">
<path d="M2165 7283 c199 -3 271 -7 278 -16 6 -9 7 -8 4 3 -3 13 -43 15 -278 15 l-274 1 270 -3z"/>
<path d="M3643 7283 c76 -2 198 -2 270 0 73 1 11 3 -138 3 -148 0 -208 -2 -132 -3z"/>
<path d="M3485 6320 c-3 -5 -1 -10 4 -10 6 0 11 5 11 10 0 6 -2 10 -4 10 -3 0 -8 -4 -11 -10z"/>
<path d="M6154 5485 c0 -181 2 -257 3 -168 2 89 2 237 0 330 -1 92 -3 20 -3 -162z"/>
<path d="M2440 5689 c0 -5 5 -7 10 -4 6 3 10 8 10 11 0 2 -4 4 -10 4 -5 0 -10 -5 -10 -11z"/>
<path d="M6918 5313 c89 -2 235 -2 325 0 89 1 16 3 -163 3 -179 0 -252 -2 -162 -3z"/>
<path d="M7420 5313 c7 -3 10 -239 10 -713 0 -474 -3 -710 -10 -713 -6 -3 -5 -4 2 -3 10 2 13 146 13 716 0 570 -3 714 -13 716 -7 1 -8 0 -2 -3z"/>
<path d="M6132 4760 c0 -14 2 -19 5 -12 2 6 2 18 0 25 -3 6 -5 1 -5 -13z"/>
<path d="M6091 4424 c0 -11 3 -14 6 -6 3 7 2 16 -1 19 -3 4 -6 -2 -5 -13z"/>
<path d="M5879 3963 c-13 -16 -12 -17 4 -4 16 13 21 21 13 21 -2 0 -10 -8 -17 -17z"/>
<path d="M5616 3881 c-3 -4 6 -6 19 -3 14 2 25 6 25 8 0 8 -39 4 -44 -5z"/>
<path d="M6918 3883 c89 -2 235 -2 325 0 89 1 16 3 -163 3 -179 0 -252 -2 -162 -3z"/>
<path d="M8118 3883 c45 -2 119 -2 165 0 45 1 8 3 -83 3 -91 0 -128 -2 -82 -3z"/>
<path d="M5773 2573 c76 -2 198 -2 270 0 73 1 11 3 -138 3 -148 0 -208 -2 -132 -3z"/>
<path d="M7953 2573 c75 -2 199 -2 275 0 75 1 13 3 -138 3 -151 0 -213 -2 -137 -3z"/>
</g>
</g>
  <g id="id3:id3" transform="matrix(1.25,0,0,1.25,0.0,0.0)"><g transform="translate(0.000000,409.600000) scale(0.040000,-0.040000)" fill="#e1e1e1" stroke="none">
<path d="M2445 6490 c0 -426 1 -601 2 -387 2 213 2 561 0 775 -1 213 -2 38 -2 -388z"/>
<path d="M4055 6825 l0 -430 1068 0 1067 0 -1065 2 -1065 3 -3 428 -2 427 0 -430z"/>
<path d="M6204 6140 c0 -118 2 -167 3 -107 2 59 2 155 0 215 -1 59 -3 10 -3 -108z"/>
<path d="M3492 5528 c-1 -433 1 -789 6 -791 6 -5 6 569 -1 1298 -1 154 -3 -74 -5 -507z"/>
<path d="M6200 5901 c0 -10 19 -25 25 -20 1 2 -3 10 -11 17 -8 7 -14 8 -14 3z"/>
<path d="M4055 5280 c0 -289 1 -407 2 -262 2 144 2 380 0 525 -1 144 -2 26 -2 -263z"/>
<path d="M6153 5105 c0 -33 2 -45 4 -27 2 18 2 45 0 60 -2 15 -4 0 -4 -33z"/>
<path d="M6142 4820 c0 -14 2 -19 5 -12 2 6 2 18 0 25 -3 6 -5 1 -5 -13z"/>
<path d="M6132 4715 c0 -16 2 -22 5 -12 2 9 2 23 0 30 -3 6 -5 -1 -5 -18z"/>
<path d="M6112 4530 c0 -14 2 -19 5 -12 2 6 2 18 0 25 -3 6 -5 1 -5 -13z"/>
<path d="M5668 3883 c6 -2 18 -2 25 0 6 3 1 5 -13 5 -14 0 -19 -2 -12 -5z"/>
<path d="M8370 3223 c-3 -353 -2 -639 3 -634 4 4 6 293 5 642 l-3 634 -5 -642z"/>
<path d="M4947 3843 c94 -2 252 -2 350 0 98 1 21 2 -172 2 -192 1 -273 -1 -178 -2z"/>
<path d="M5615 3230 c0 -333 1 -469 2 -303 2 167 2 439 0 605 -1 167 -2 31 -2 -302z"/>
<path d="M6185 3307 c-3 -6 -4 -170 -3 -362 l3 -350 5 363 c3 199 4 362 2 362 -1 0 -5 -6 -7 -13z"/>
</g>
</g>
  <g id="id4:id4" transform="matrix(1.25,0,0,1.25,0.0,0.0)"><g transform="translate(0.000000,409.600000) scale(0.040000,-0.040000)" fill="#d3d3d3" stroke="none">
<path d="M6668 5883 c243 -2 641 -2 885 0 243 1 44 2 -443 2 -487 0 -686 -1 -442 -2z"/>
<path d="M4223 5833 c92 -2 242 -2 335 0 92 1 16 3 -168 3 -184 0 -260 -2 -167 -3z"/>
<path d="M5678 5833 c90 -2 234 -2 320 0 86 1 13 3 -163 3 -176 0 -247 -2 -157 -3z"/>
<path d="M4755 4830 c0 -536 1 -756 2 -487 2 268 2 706 0 975 -1 268 -2 48 -2 -488z"/>
<path d="M5485 4830 c0 -536 1 -756 2 -487 2 268 2 706 0 975 -1 268 -2 48 -2 -488z"/>
<path d="M6153 4970 c0 -25 2 -35 4 -22 2 12 2 32 0 45 -2 12 -4 2 -4 -23z"/>
<path d="M6132 4670 c0 -14 2 -19 5 -12 2 6 2 18 0 25 -3 6 -5 1 -5 -13z"/>
<path d="M6603 3313 c225 -2 589 -2 810 0 221 1 38 2 -408 2 -445 0 -626 -1 -402 -2z"/>
</g>
</g>
  <g id="id5:id5" transform="matrix(1.25,0,0,1.25,0.0,0.0)"><g transform="translate(0.000000,409.600000) scale(0.040000,-0.040000)" fill="#c6c6c6" stroke="none">
<path d="M8002 4878 c-1 -548 1 -999 6 -1001 6 -5 6 692 -1 1638 -1 198 -3 -89 -5 -637z"/>
<path d="M6164 5565 c0 -143 2 -200 3 -127 2 73 2 190 0 260 -1 70 -3 10 -3 -133z"/>
<path d="M7445 4600 c0 -393 1 -554 2 -357 2 196 2 518 0 715 -1 196 -2 35 -2 -358z"/>
<path d="M6152 4905 c0 -16 2 -22 5 -12 2 9 2 23 0 30 -3 6 -5 -1 -5 -18z"/>
<path d="M2038 4733 c72 -2 192 -2 265 0 72 1 13 3 -133 3 -146 0 -205 -2 -132 -3z"/>
<path d="M3642 4733 c70 -2 187 -2 260 0 73 1 16 3 -127 3 -143 0 -203 -2 -133 -3z"/>
<path d="M6131 4634 c0 -11 3 -14 6 -6 3 7 2 16 -1 19 -3 4 -6 -2 -5 -13z"/>
<path d="M5929 4003 c-13 -16 -12 -17 4 -4 16 13 21 21 13 21 -2 0 -10 -8 -17 -17z"/>
<path d="M8095 2590 l-270 -5 267 -3 c170 -1 269 2 273 8 3 6 5 9 3 8 -2 -1 -124 -5 -273 -8z"/>
<path d="M5768 2583 c72 -2 192 -2 265 0 72 1 13 3 -133 3 -146 0 -205 -2 -132 -3z"/>
</g>
</g>
  <g id="id6:id6" transform="matrix(1.25,0,0,1.25,0.0,0.0)"><g transform="translate(0.000000,409.600000) scale(0.040000,-0.040000)" fill="#ababab" stroke="none">
<path d="M2028 7273 c72 -2 192 -2 265 0 72 1 13 3 -133 3 -146 0 -205 -2 -132 -3z"/>
<path d="M3600 7273 c237 -7 448 -7 443 0 -2 4 -124 6 -271 5 -147 -1 -224 -3 -172 -5z"/>
<path d="M1895 6005 c0 -693 1 -975 2 -627 2 349 2 916 0 1260 -1 345 -2 60 -2 -633z"/>
<path d="M6725 5318 c-3 -7 -4 -335 -3 -728 l3 -715 354 -3 c195 -1 358 1 362 5 5 5 -154 7 -351 5 l-360 -2 0 720 0 720 359 -2 c198 -2 357 0 354 5 -2 4 -164 7 -359 7 -274 0 -356 -3 -359 -12z"/>
<path d="M6163 5235 c0 -44 2 -61 4 -37 2 23 2 59 0 80 -2 20 -4 1 -4 -43z"/>
<path d="M6152 4860 c0 -14 2 -19 5 -12 2 6 2 18 0 25 -3 6 -5 1 -5 -13z"/>
<path d="M5626 3871 c-4 -5 3 -7 14 -4 23 6 26 13 6 13 -8 0 -17 -4 -20 -9z"/>
<path d="M8075 3873 c146 -7 293 -7 288 0 -2 4 -82 6 -176 5 -95 -1 -145 -3 -112 -5z"/>
<path d="M7815 2950 c0 -195 1 -275 2 -178 2 98 2 258 0 355 -1 98 -2 18 -2 -177z"/>
</g>
</g>
  <g id="id7:id7" transform="matrix(1.25,0,0,1.25,0.0,0.0)"><g transform="translate(0.000000,409.600000) scale(0.040000,-0.040000)" fill="#919191" stroke="none">
<path d="M4045 6830 c0 -239 1 -337 2 -217 2 119 2 315 0 435 -1 119 -2 21 -2 -218z"/>
<path d="M4587 6383 c292 -2 774 -2 1070 0 296 1 57 2 -532 2 -588 0 -831 -1 -538 -2z"/>
<path d="M3501 6314 c0 -11 3 -14 6 -6 3 7 2 16 -1 19 -3 4 -6 -2 -5 -13z"/>
<path d="M4045 5285 c0 -286 1 -402 2 -257 2 145 2 379 0 520 -1 141 -2 23 -2 -263z"/>
<path d="M2431 5694 c0 -11 3 -14 6 -6 3 7 2 16 -1 19 -3 4 -6 -2 -5 -13z"/>
<path d="M6152 4820 c0 -14 2 -19 5 -12 2 6 2 18 0 25 -3 6 -5 1 -5 -13z"/>
<path d="M6141 4724 c0 -11 3 -14 6 -6 3 7 2 16 -1 19 -3 4 -6 -2 -5 -13z"/>
<path d="M5668 3873 c7 -3 16 -2 19 1 4 3 -2 6 -13 5 -11 0 -14 -3 -6 -6z"/>
<path d="M4958 3853 c94 -2 250 -2 345 0 94 1 17 3 -173 3 -190 0 -267 -2 -172 -3z"/>
<path d="M8365 3230 c0 -349 1 -492 2 -317 2 174 2 460 0 635 -1 174 -2 31 -2 -318z"/>
</g>
</g>
  <g id="id8:id8" transform="matrix(1.25,0,0,1.25,0.0,0.0)"><g transform="translate(0.000000,409.600000) scale(0.040000,-0.040000)" fill="#8a8a8a" stroke="none">
<path d="M2435 6480 c0 -426 1 -601 2 -387 2 213 2 561 0 775 -1 213 -2 38 -2 -388z"/>
<path d="M3505 5540 c0 -421 1 -593 2 -382 2 210 2 554 0 765 -1 210 -2 38 -2 -383z"/>
<path d="M6163 5110 c0 -25 2 -35 4 -22 2 12 2 32 0 45 -2 12 -4 2 -4 -23z"/>
<path d="M5919 3983 c-13 -16 -12 -17 4 -4 16 13 21 21 13 21 -2 0 -10 -8 -17 -17z"/>
<path d="M6174 2950 c0 -190 2 -267 3 -172 2 94 2 250 0 345 -1 94 -3 17 -3 -173z"/>
</g>
</g>
  <g id="id9:id9" transform="matrix(1.25,0,0,1.25,0.0,0.0)"><g transform="translate(0.000000,409.600000) scale(0.040000,-0.040000)" fill="#727272" stroke="none">
<path d="M6194 6130 c0 -135 2 -190 3 -122 2 67 2 177 0 245 -1 67 -3 12 -3 -123z"/>
<path d="M6174 5565 c0 -143 2 -200 3 -127 2 73 2 190 0 260 -1 70 -3 10 -3 -133z"/>
<path d="M7455 4600 c0 -399 1 -562 2 -362 2 199 2 525 0 725 -1 199 -2 36 -2 -363z"/>
<path d="M6163 5030 c0 -25 2 -35 4 -22 2 12 2 32 0 45 -2 12 -4 2 -4 -23z"/>
<path d="M6141 4684 c0 -11 3 -14 6 -6 3 7 2 16 -1 19 -3 4 -6 -2 -5 -13z"/>
<path d="M5625 3858 c-3 -7 -4 -292 -3 -633 l3 -620 5 633 c3 347 4 632 2 632 -1 0 -5 -6 -7 -12z"/>
<path d="M5768 2593 c72 -2 192 -2 265 0 72 1 13 3 -133 3 -146 0 -205 -2 -132 -3z"/>
<path d="M7958 2593 c72 -2 192 -2 265 0 72 1 13 3 -133 3 -146 0 -205 -2 -132 -3z"/>
</g>
</g>
  <g id="id10:id10" transform="matrix(1.25,0,0,1.25,0.0,0.0)"><g transform="translate(0.000000,409.600000) scale(0.040000,-0.040000)" fill="#535353" stroke="none">
<path d="M1995 7263 c224 -7 433 -7 428 0 -2 4 -120 6 -261 5 -141 -1 -216 -3 -167 -5z"/>
<path d="M3507 7263 c-3 -5 74 -7 171 -5 326 4 359 8 95 10 -144 1 -264 -1 -266 -5z"/>
<path d="M3496 6352 c-3 -5 1 -9 9 -9 8 0 15 4 15 9 0 4 -4 8 -9 8 -6 0 -12 -4 -15 -8z"/>
<path d="M6199 5877 c4 -4 407 -6 897 -5 l889 3 -897 5 c-493 3 -894 2 -889 -3z"/>
<path d="M4223 5843 c97 -2 257 -2 355 0 97 1 17 2 -178 2 -195 0 -275 -1 -177 -2z"/>
<path d="M5652 5843 c92 -2 245 -2 340 0 95 1 20 3 -167 3 -187 0 -265 -2 -173 -3z"/>
<path d="M4765 4850 c0 -542 1 -763 2 -492 2 270 2 714 0 985 -1 270 -2 49 -2 -493z"/>
<path d="M5475 4855 c0 -539 1 -758 2 -487 2 272 2 713 0 980 -1 268 -2 46 -2 -493z"/>
<path d="M6855 5333 c330 -7 603 -7 598 0 -2 4 -167 6 -366 5 -199 -1 -303 -4 -232 -5z"/>
<path d="M6173 5235 c0 -44 2 -61 4 -37 2 23 2 59 0 80 -2 20 -4 1 -4 -43z"/>
<path d="M6162 4960 c0 -19 2 -27 5 -17 2 9 2 25 0 35 -3 9 -5 1 -5 -18z"/>
<path d="M6152 4740 c0 -14 2 -19 5 -12 2 6 2 18 0 25 -3 6 -5 1 -5 -13z"/>
<path d="M7090 3870 l-365 -5 362 -3 c233 -1 364 2 368 8 3 6 5 9 3 8 -2 -2 -167 -5 -368 -8z"/>
<path d="M5648 3863 c6 -2 18 -2 25 0 6 3 1 5 -13 5 -14 0 -19 -2 -12 -5z"/>
<path d="M8082 3863 c48 -2 129 -2 180 0 51 1 12 3 -87 3 -99 0 -141 -2 -93 -3z"/>
<path d="M6582 3323 c223 -2 592 -2 820 0 227 1 44 2 -407 2 -451 0 -637 -1 -413 -2z"/>
</g>
</g>
  <g id="id11:id11" transform="matrix(1.25,0,0,1.25,0.0,0.0)"><g transform="translate(0.000000,409.600000) scale(0.040000,-0.040000)" fill="#343434" stroke="none">
<path d="M1905 6005 c0 -693 1 -975 2 -627 2 349 2 916 0 1260 -1 345 -2 60 -2 -633z"/>
<path d="M2425 6460 c0 -437 1 -616 2 -397 2 218 2 576 0 795 -1 218 -2 39 -2 -398z"/>
<path d="M3515 5543 l0 -798 253 0 252 -1 -250 3 -250 3 -3 795 -2 795 0 -797z"/>
<path d="M7990 4877 l5 -1002 3 994 c1 547 -1 998 -5 1002 -5 5 -6 -443 -3 -994z"/>
<path d="M6715 4600 c0 -393 1 -554 2 -357 2 196 2 518 0 715 -1 196 -2 35 -2 -358z"/>
<path d="M6173 5115 c0 -27 2 -38 4 -22 2 15 2 37 0 50 -2 12 -4 0 -4 -28z"/>
<path d="M6163 4885 c0 -27 2 -38 4 -22 2 15 2 37 0 50 -2 12 -4 0 -4 -28z"/>
<path d="M2042 4743 c70 -2 187 -2 260 0 73 1 16 3 -127 3 -143 0 -203 -2 -133 -3z"/>
<path d="M6142 4625 c0 -16 2 -22 5 -12 2 9 2 23 0 30 -3 6 -5 -1 -5 -18z"/>
<path d="M6121 4474 c0 -11 3 -14 6 -6 3 7 2 16 -1 19 -3 4 -6 -2 -5 -13z"/>
<path d="M5929 3983 l-24 -28 28 24 c15 14 27 26 27 28 0 8 -8 1 -31 -24z"/>
<path d="M6165 3317 c-3 -6 -4 -170 -3 -362 l3 -350 5 363 c3 199 4 362 2 362 -1 0 -5 -6 -7 -13z"/>
<path d="M7825 2955 c0 -198 1 -280 2 -183 2 97 2 259 0 360 -1 101 -2 21 -2 -177z"/>
</g>
</g>
  <g id="id12:id12" transform="matrix(1.25,0,0,1.25,0.0,0.0)"><g transform="translate(0.000000,409.600000) scale(0.040000,-0.040000)" fill="#212121" stroke="none">
<path d="M4035 6820 c0 -239 1 -337 2 -217 2 119 2 315 0 435 -1 119 -2 21 -2 -218z"/>
<path d="M4577 6373 c292 -2 774 -2 1070 0 296 1 57 2 -532 2 -588 0 -831 -1 -538 -2z"/>
<path d="M3495 6360 c-3 -6 1 -7 9 -4 18 7 21 14 7 14 -6 0 -13 -4 -16 -10z"/>
<path d="M6184 6120 c0 -129 2 -182 3 -117 2 64 2 170 0 235 -1 64 -3 11 -3 -118z"/>
<path d="M4035 5310 c0 -294 1 -415 2 -267 2 147 2 387 0 535 -1 147 -2 26 -2 -268z"/>
<path d="M6184 5570 c0 -146 2 -205 3 -132 2 72 2 192 0 265 -1 72 -3 13 -3 -133z"/>
<path d="M2430 5650 c-9 -6 -10 -10 -3 -10 6 0 15 5 18 10 8 12 4 12 -15 0z"/>
<path d="M7465 4600 c0 -399 1 -562 2 -362 2 199 2 525 0 725 -1 199 -2 36 -2 -363z"/>
<path d="M6173 5035 c0 -22 2 -30 4 -17 2 12 2 30 0 40 -3 9 -5 -1 -4 -23z"/>
<path d="M6163 4800 c0 -25 2 -35 4 -22 2 12 2 32 0 45 -2 12 -4 2 -4 -23z"/>
<path d="M4026 4753 c-6 -14 -5 -15 5 -6 7 7 10 15 7 18 -3 3 -9 -2 -12 -12z"/>
<path d="M6142 4580 c0 -14 2 -19 5 -12 2 6 2 18 0 25 -3 6 -5 1 -5 -13z"/>
<path d="M6121 4444 c0 -11 3 -14 6 -6 3 7 2 16 -1 19 -3 4 -6 -2 -5 -13z"/>
<path d="M6101 4344 c0 -11 3 -14 6 -6 3 7 2 16 -1 19 -3 4 -6 -2 -5 -13z"/>
<path d="M4943 3863 c97 -2 257 -2 355 0 97 1 17 2 -178 2 -195 0 -275 -1 -177 -2z"/>
<path d="M5635 3240 c0 -338 1 -477 2 -307 2 169 2 445 0 615 -1 169 -2 30 -2 -308z"/>
<path d="M8355 3230 c0 -344 1 -484 2 -312 2 171 2 453 0 625 -1 171 -2 31 -2 -313z"/>
<path d="M5763 2603 c71 -2 183 -2 250 0 67 1 10 3 -128 3 -137 0 -192 -2 -122 -3z"/>
<path d="M7968 2603 c67 -2 177 -2 245 0 67 1 12 3 -123 3 -135 0 -190 -2 -122 -3z"/>
</g>
</g>
  <g id="id13:id13" transform="matrix(1.25,0,0,1.25,0.0,0.0)"><g transform="translate(0.000000,409.600000) scale(0.040000,-0.040000)" fill="#0f0f0f" stroke="none">
<path d="M2058 7253 c68 -2 176 -2 240 0 64 1 9 3 -123 3 -132 0 -185 -2 -117 -3z"/>
<path d="M3653 7253 c64 -2 170 -2 235 0 64 1 11 3 -118 3 -129 0 -182 -2 -117 -3z"/>
<path d="M2415 6470 c0 -421 1 -593 2 -382 2 210 2 554 0 765 -1 210 -2 38 -2 -383z"/>
<path d="M3521 6344 c0 -11 3 -14 6 -6 3 7 2 16 -1 19 -3 4 -6 -2 -5 -13z"/>
<path d="M3525 5530 c0 -421 1 -593 2 -382 2 210 2 554 0 765 -1 210 -2 38 -2 -383z"/>
<path d="M2412 5660 c0 -14 2 -19 5 -12 2 6 2 18 0 25 -3 6 -5 1 -5 -13z"/>
<path d="M6717 5343 c-5 -7 279 -7 608 0 72 1 -35 4 -237 5 -202 1 -369 -1 -371 -5z"/>
<path d="M6183 5230 c0 -47 2 -66 4 -42 2 23 2 61 0 85 -2 23 -4 4 -4 -43z"/>
<path d="M6162 4735 c0 -16 2 -22 5 -12 2 9 2 23 0 30 -3 6 -5 -1 -5 -18z"/>
<path d="M6141 4544 c0 -11 3 -14 6 -6 3 7 2 16 -1 19 -3 4 -6 -2 -5 -13z"/>
<path d="M6121 4414 c0 -11 3 -14 6 -6 3 7 2 16 -1 19 -3 4 -6 -2 -5 -13z"/>
<path d="M5770 3880 c-9 -6 -10 -10 -3 -10 6 0 15 5 18 10 8 12 4 12 -15 0z"/>
<path d="M6719 3857 c4 -4 171 -6 372 -5 l364 3 -372 5 c-205 3 -369 2 -364 -3z"/>
<path d="M7999 3857 c4 -4 79 -6 167 -5 l159 3 -167 5 c-92 3 -164 2 -159 -3z"/>
<path d="M5653 3853 c9 -2 23 -2 30 0 6 3 -1 5 -18 5 -16 0 -22 -2 -12 -5z"/>
<path d="M6154 2950 c0 -179 2 -252 3 -162 2 89 2 235 0 325 -1 89 -3 16 -3 -163z"/>
</g>
</g>
  <g id="id14:id14" transform="matrix(1.25,0,0,1.25,0.0,0.0)"><g transform="translate(0.000000,409.600000) scale(0.040000,-0.040000)" fill="#050505" stroke="none">
<path d="M1924 7254 c3 -7 6 -574 7 -1260 0 -687 3 -1243 6 -1236 3 9 60 12 233 12 173 0 230 -3 233 -12 4 -10 6 -10 6 0 1 6 8 12 16 12 9 0 12 6 8 16 -4 10 -8 12 -13 5 -4 -8 -78 -11 -241 -9 l-234 3 0 1215 0 1215 217 3 218 2 3 -782 2 -783 2 800 c1 440 -1 794 -4 788 -3 -10 -57 -13 -220 -13 -193 0 -217 2 -230 18 -8 9 -12 12 -9 6z"/>
<path d="M3510 7256 c0 -2 7 -7 16 -10 8 -3 12 -2 9 4 -6 10 -25 14 -25 6z"/>
<path d="M4004 7245 c-5 -13 -42 -15 -244 -15 -132 0 -241 -3 -243 -7 -3 -5 105 -7 239 -5 l244 3 3 -423 2 -423 3 437 c1 338 5 437 15 441 9 4 9 6 -1 6 -7 1 -15 -6 -18 -14z"/>
<path d="M3466 7167 c3 -10 9 -15 12 -12 3 3 0 11 -7 18 -10 9 -11 8 -5 -6z"/>
<path d="M3426 7107 c3 -10 9 -15 12 -12 3 3 0 11 -7 18 -10 9 -11 8 -5 -6z"/>
<path d="M3386 7047 c3 -10 9 -15 12 -12 3 3 0 11 -7 18 -10 9 -11 8 -5 -6z"/>
<path d="M3346 6987 c3 -10 9 -15 12 -12 3 3 0 11 -7 18 -10 9 -11 8 -5 -6z"/>
<path d="M3306 6927 c3 -10 9 -15 12 -12 3 3 0 11 -7 18 -10 9 -11 8 -5 -6z"/>
<path d="M3266 6867 c3 -10 9 -15 12 -12 3 3 0 11 -7 18 -10 9 -11 8 -5 -6z"/>
<path d="M3251 6824 c0 -11 3 -14 6 -6 3 7 2 16 -1 19 -3 4 -6 -2 -5 -13z"/>
<path d="M3231 6794 c0 -11 3 -14 6 -6 3 7 2 16 -1 19 -3 4 -6 -2 -5 -13z"/>
<path d="M3191 6734 c0 -11 3 -14 6 -6 3 7 2 16 -1 19 -3 4 -6 -2 -5 -13z"/>
<path d="M3151 6674 c0 -11 3 -14 6 -6 3 7 2 16 -1 19 -3 4 -6 -2 -5 -13z"/>
<path d="M3106 6617 c3 -10 9 -15 12 -12 3 3 0 11 -7 18 -10 9 -11 8 -5 -6z"/>
<path d="M3066 6557 c3 -10 9 -15 12 -12 3 3 0 11 -7 18 -10 9 -11 8 -5 -6z"/>
<path d="M3026 6497 c3 -10 9 -15 12 -12 3 3 0 11 -7 18 -10 9 -11 8 -5 -6z"/>
<path d="M2986 6437 c3 -10 9 -15 12 -12 3 3 0 11 -7 18 -10 9 -11 8 -5 -6z"/>
<path d="M2946 6377 c3 -10 9 -15 12 -12 3 3 0 11 -7 18 -10 9 -11 8 -5 -6z"/>
<path d="M3490 6372 c0 -4 9 -8 19 -8 11 0 17 4 15 8 -3 4 -12 8 -20 8 -8 0 -14 -4 -14 -8z"/>
<path d="M3552 5569 c-2 -689 -4 -788 -17 -793 -8 -3 -15 -11 -14 -18 0 -9 2 -10 5 -1 8 18 470 19 477 1 3 -7 4 235 4 537 l-2 550 -5 -530 -5 -530 -215 0 -215 0 -5 785 -5 785 -3 -786z"/>
<path d="M4280 6343 c625 -7 1900 -7 1900 0 0 4 -483 6 -1072 5 -590 -2 -963 -4 -828 -5z"/>
<path d="M3440 6331 c0 -6 4 -13 10 -16 6 -3 7 1 4 9 -7 18 -14 21 -14 7z"/>
<path d="M2906 6317 c3 -10 9 -15 12 -12 3 3 0 11 -7 18 -10 9 -11 8 -5 -6z"/>
<path d="M3522 6310 c0 -14 2 -19 5 -12 2 6 2 18 0 25 -3 6 -5 1 -5 -13z"/>
<path d="M3420 6301 c0 -6 4 -13 10 -16 6 -3 7 1 4 9 -7 18 -14 21 -14 7z"/>
<path d="M3400 6271 c0 -6 4 -13 10 -16 6 -3 7 1 4 9 -7 18 -14 21 -14 7z"/>
<path d="M2866 6257 c3 -10 9 -15 12 -12 3 3 0 11 -7 18 -10 9 -11 8 -5 -6z"/>
<path d="M3360 6211 c0 -6 4 -13 10 -16 6 -3 7 1 4 9 -7 18 -14 21 -14 7z"/>
<path d="M2826 6197 c3 -10 9 -15 12 -12 3 3 0 11 -7 18 -10 9 -11 8 -5 -6z"/>
<path d="M3320 6151 c0 -6 4 -13 10 -16 6 -3 7 1 4 9 -7 18 -14 21 -14 7z"/>
<path d="M2786 6137 c3 -10 9 -15 12 -12 3 3 0 11 -7 18 -10 9 -11 8 -5 -6z"/>
<path d="M3280 6091 c0 -6 4 -13 10 -16 6 -3 7 1 4 9 -7 18 -14 21 -14 7z"/>
<path d="M2746 6077 c3 -10 9 -15 12 -12 3 3 0 11 -7 18 -10 9 -11 8 -5 -6z"/>
<path d="M2726 6047 c3 -10 9 -15 12 -12 3 3 0 11 -7 18 -10 9 -11 8 -5 -6z"/>
<path d="M3240 6031 c0 -6 4 -13 10 -16 6 -3 7 1 4 9 -7 18 -14 21 -14 7z"/>
<path d="M2706 6017 c3 -10 9 -15 12 -12 3 3 0 11 -7 18 -10 9 -11 8 -5 -6z"/>
<path d="M2686 5987 c3 -10 9 -15 12 -12 3 3 0 11 -7 18 -10 9 -11 8 -5 -6z"/>
<path d="M3200 5971 c0 -6 4 -13 10 -16 6 -3 7 1 4 9 -7 18 -14 21 -14 7z"/>
<path d="M2646 5927 c3 -10 9 -15 12 -12 3 3 0 11 -7 18 -10 9 -11 8 -5 -6z"/>
<path d="M3160 5911 c0 -6 4 -13 10 -16 6 -3 7 1 4 9 -7 18 -14 21 -14 7z"/>
<path d="M2606 5867 c3 -10 9 -15 12 -12 3 3 0 11 -7 18 -10 9 -11 8 -5 -6z"/>
<path d="M4233 5873 c97 -2 257 -2 355 0 97 1 17 2 -178 2 -195 0 -275 -1 -177 -2z"/>
<path d="M5647 5873 c94 -2 252 -2 350 0 98 1 21 2 -172 2 -192 1 -273 -1 -178 -2z"/>
<path d="M7955 5860 c4 -7 -288 -10 -869 -10 l-876 0 2 -392 3 -393 2 388 3 387 870 0 870 0 0 -987 c0 -542 2 -989 5 -992 3 -2 5 449 5 1002 0 691 -4 1007 -11 1007 -5 0 -7 -4 -4 -10z"/>
<path d="M3120 5851 c0 -6 4 -13 10 -16 6 -3 7 1 4 9 -7 18 -14 21 -14 7z"/>
<path d="M4048 5853 c7 -3 16 -2 19 1 4 3 -2 6 -13 5 -11 0 -14 -3 -6 -6z"/>
<path d="M4793 4855 c-1 -544 1 -984 4 -977 4 9 78 12 323 12 245 0 319 -3 323 -12 3 -7 5 433 4 977 l-2 990 -2 -972 -3 -973 -320 0 -320 0 -3 973 -2 972 -2 -990z"/>
<path d="M2566 5807 c3 -10 9 -15 12 -12 3 3 0 11 -7 18 -10 9 -11 8 -5 -6z"/>
<path d="M3080 5791 c0 -6 4 -13 10 -16 6 -3 7 1 4 9 -7 18 -14 21 -14 7z"/>
<path d="M2526 5747 c3 -10 9 -15 12 -12 3 3 0 11 -7 18 -10 9 -11 8 -5 -6z"/>
<path d="M3040 5731 c0 -6 4 -13 10 -16 6 -3 7 1 4 9 -7 18 -14 21 -14 7z"/>
<path d="M2411 5694 c0 -11 3 -14 6 -6 3 7 2 16 -1 19 -3 4 -6 -2 -5 -13z"/>
<path d="M2486 5687 c3 -10 9 -15 12 -12 3 3 0 11 -7 18 -10 9 -11 8 -5 -6z"/>
<path d="M3001 5664 c0 -11 3 -14 6 -6 3 7 2 16 -1 19 -3 4 -6 -2 -5 -13z"/>
<path d="M2425 5630 c28 -12 37 -12 30 0 -3 6 -16 10 -28 9 -21 0 -21 -1 -2 -9z"/>
<path d="M2961 5604 c0 -11 3 -14 6 -6 3 7 2 16 -1 19 -3 4 -6 -2 -5 -13z"/>
<path d="M2920 5546 c0 -8 4 -17 9 -20 5 -4 7 3 4 14 -6 23 -13 26 -13 6z"/>
<path d="M2900 5516 c0 -8 4 -17 9 -20 5 -4 7 3 4 14 -6 23 -13 26 -13 6z"/>
<path d="M2880 5481 c0 -6 4 -13 10 -16 6 -3 7 1 4 9 -7 18 -14 21 -14 7z"/>
<path d="M2860 5451 c0 -6 4 -13 10 -16 6 -3 7 1 4 9 -7 18 -14 21 -14 7z"/>
<path d="M2840 5421 c0 -6 4 -13 10 -16 6 -3 7 1 4 9 -7 18 -14 21 -14 7z"/>
<path d="M2820 5391 c0 -6 4 -13 10 -16 6 -3 7 1 4 9 -7 18 -14 21 -14 7z"/>
<path d="M6903 5373 c104 -2 270 -2 370 0 100 1 16 2 -188 2 -203 0 -285 -1 -182 -2z"/>
<path d="M2800 5361 c0 -6 4 -13 10 -16 6 -3 7 1 4 9 -7 18 -14 21 -14 7z"/>
<path d="M2780 5331 c0 -6 4 -13 10 -16 6 -3 7 1 4 9 -7 18 -14 21 -14 7z"/>
<path d="M6685 4600 c0 -404 1 -570 2 -367 2 202 2 532 0 735 -1 202 -2 36 -2 -368z"/>
<path d="M7495 4600 c0 -404 1 -570 2 -367 2 202 2 532 0 735 -1 202 -2 36 -2 -368z"/>
<path d="M2760 5301 c0 -6 4 -13 10 -16 6 -3 7 1 4 9 -7 18 -14 21 -14 7z"/>
<path d="M2740 5271 c0 -6 4 -13 10 -16 6 -3 7 1 4 9 -7 18 -14 21 -14 7z"/>
<path d="M2720 5241 c0 -6 4 -13 10 -16 6 -3 7 1 4 9 -7 18 -14 21 -14 7z"/>
<path d="M2700 5211 c0 -6 4 -13 10 -16 6 -3 7 1 4 9 -7 18 -14 21 -14 7z"/>
<path d="M2680 5181 c0 -6 4 -13 10 -16 6 -3 7 1 4 9 -7 18 -14 21 -14 7z"/>
<path d="M2660 5151 c0 -6 4 -13 10 -16 6 -3 7 1 4 9 -7 18 -14 21 -14 7z"/>
<path d="M2640 5121 c0 -6 4 -13 10 -16 6 -3 7 1 4 9 -7 18 -14 21 -14 7z"/>
<path d="M2620 5091 c0 -6 4 -13 10 -16 6 -3 7 1 4 9 -7 18 -14 21 -14 7z"/>
<path d="M6182 5070 c0 -14 2 -19 5 -12 2 6 2 18 0 25 -3 6 -5 1 -5 -13z"/>
<path d="M2580 5031 c0 -6 4 -13 10 -16 6 -3 7 1 4 9 -7 18 -14 21 -14 7z"/>
<path d="M2540 4971 c0 -6 4 -13 10 -16 6 -3 7 1 4 9 -7 18 -14 21 -14 7z"/>
<path d="M6194 4840 c0 -80 2 -112 3 -72 2 39 2 105 0 145 -1 39 -3 7 -3 -73z"/>
<path d="M2500 4911 c0 -6 4 -13 10 -16 6 -3 7 1 4 9 -7 18 -14 21 -14 7z"/>
<path d="M2460 4851 c0 -6 4 -13 10 -16 6 -3 7 1 4 9 -7 18 -14 21 -14 7z"/>
<path d="M6173 4590 c0 -41 2 -58 4 -37 2 20 2 54 0 75 -2 20 -4 3 -4 -38z"/>
<path d="M6153 4450 c0 -30 2 -43 4 -27 2 15 2 39 0 55 -2 15 -4 2 -4 -28z"/>
<path d="M6132 4350 c0 -19 2 -27 5 -17 2 9 2 25 0 35 -3 9 -5 1 -5 -18z"/>
<path d="M6112 4275 c0 -16 2 -22 5 -12 2 9 2 23 0 30 -3 6 -5 -1 -5 -18z"/>
<path d="M6092 4210 c0 -14 2 -19 5 -12 2 6 2 18 0 25 -3 6 -5 1 -5 -13z"/>
<path d="M6071 4154 c0 -11 3 -14 6 -6 3 7 2 16 -1 19 -3 4 -6 -2 -5 -13z"/>
<path d="M6051 4114 c0 -11 3 -14 6 -6 3 7 2 16 -1 19 -3 4 -6 -2 -5 -13z"/>
<path d="M6031 4074 c0 -11 3 -14 6 -6 3 7 2 16 -1 19 -3 4 -6 -2 -5 -13z"/>
<path d="M6006 4057 c3 -10 9 -15 12 -12 3 3 0 11 -7 18 -10 9 -11 8 -5 -6z"/>
<path d="M5986 4027 c3 -10 9 -15 12 -12 3 3 0 11 -7 18 -10 9 -11 8 -5 -6z"/>
<path d="M5966 3997 c3 -10 9 -15 12 -12 3 3 0 11 -7 18 -10 9 -11 8 -5 -6z"/>
<path d="M5946 3977 c3 -10 9 -15 12 -12 3 3 0 11 -7 18 -10 9 -11 8 -5 -6z"/>
<path d="M5907 3952 c-22 -24 -21 -32 1 -31 11 0 12 2 4 6 -10 4 -9 9 4 24 9 10 15 19 12 19 -3 0 -12 -8 -21 -18z"/>
<path d="M5867 3909 c7 -7 15 -10 18 -7 3 3 -2 9 -12 12 -14 6 -15 5 -6 -5z"/>
<path d="M5788 3868 c6 -6 18 -8 28 -6 14 3 12 5 -9 10 -19 3 -25 2 -19 -4z"/>
<path d="M8323 3845 c-7 -12 -40 -15 -168 -18 l-160 -3 163 -2 162 -2 -2 -587 -3 -588 -225 0 -225 0 -5 340 -6 340 -1 -360 c0 -198 1 -354 4 -347 4 9 60 12 233 12 173 0 230 -3 233 -12 3 -7 6 267 6 609 1 487 4 622 14 626 9 4 9 6 0 6 -7 1 -16 -6 -20 -14z"/>
<path d="M5733 3843 c9 -2 25 -2 35 0 9 3 1 5 -18 5 -19 0 -27 -2 -17 -5z"/>
<path d="M5640 3819 c0 -5 5 -7 10 -4 6 3 10 8 10 11 0 2 -4 4 -10 4 -5 0 -10 -5 -10 -11z"/>
<path d="M5670 3820 c0 -5 7 -7 15 -4 8 4 15 8 15 10 0 2 -7 4 -15 4 -8 0 -15 -4 -15 -10z"/>
<path d="M6903 3823 c104 -2 270 -2 370 0 100 1 16 2 -188 2 -203 0 -285 -1 -182 -2z"/>
<path d="M6582 3353 c223 -2 592 -2 820 0 227 1 44 2 -407 2 -451 0 -637 -1 -413 -2z"/>
<path d="M6155 3329 c-4 -6 -4 -13 -1 -16 3 -4 6 -1 6 5 0 6 8 13 18 15 15 4 15 5 0 6 -9 0 -20 -4 -23 -10z"/>
<path d="M7798 3333 c7 -3 16 -2 19 1 4 3 -2 6 -13 5 -11 0 -14 -3 -6 -6z"/>
<path d="M6120 2975 l0 -336 -225 3 c-124 2 -225 0 -225 -4 0 -5 101 -8 224 -8 170 0 226 -3 229 -12 3 -7 6 146 6 340 1 193 -1 352 -4 352 -3 0 -5 -151 -5 -335z"/>
<path d="M5640 2640 c0 -5 5 -10 11 -10 5 0 7 5 4 10 -3 6 -8 10 -11 10 -2 0 -4 -4 -4 -10z"/>
</g>
</g>
  <g id="id15:id15" transform="matrix(1.25,0,0,1.25,0.0,0.0)"><g transform="translate(0.000000,409.600000) scale(0.040000,-0.040000)" fill="#000000" stroke="none">
<path d="M1910 6006 c0 -831 3 -1256 10 -1256 7 0 10 423 10 1249 0 823 -3 1252 -10 1256 -7 4 -10 -415 -10 -1249z"/>
<path d="M1940 7240 c0 -6 80 -10 220 -10 140 0 220 4 220 10 0 6 -80 10 -220 10 -140 0 -220 -4 -220 -10z"/>
<path d="M2388 6453 l-3 -798 -2 783 -3 782 -218 -2 -217 -3 0 -1215 0 -1215 238 -3 c186 -2 237 0 237 10 0 9 3 8 10 -2 8 -13 11 -12 25 5 8 12 13 30 10 45 -4 19 -3 21 4 10 9 -13 12 -12 26 5 8 12 13 30 10 45 -4 19 -3 21 4 10 9 -13 12 -12 26 5 8 12 13 30 10 45 -4 19 -3 21 4 10 9 -13 12 -12 26 5 8 12 13 30 10 45 -4 19 -3 21 4 10 9 -13 12 -12 26 5 8 11 13 31 10 45 -2 14 -2 19 1 13 11 -25 26 -13 20 15 -3 15 -3 21 0 15 11 -25 26 -13 20 15 -3 15 -3 21 0 15 11 -25 26 -13 20 15 -3 15 -3 21 0 15 11 -25 26 -13 20 15 -3 15 -3 21 0 15 11 -25 26 -13 20 15 -3 15 -3 21 0 15 11 -25 26 -13 20 15 -3 15 -3 21 0 15 11 -25 26 -13 20 15 -3 15 -3 21 0 15 11 -25 26 -13 20 15 -3 15 -3 21 0 15 11 -25 26 -13 20 15 -3 15 -3 21 0 15 11 -25 26 -13 20 15 -3 15 -3 21 0 15 11 -25 26 -13 20 15 -3 15 -3 21 0 15 11 -25 26 -13 20 15 -3 15 -3 21 0 15 11 -25 26 -13 20 15 -3 15 -3 21 0 15 10 -24 26 -13 21 15 -2 15 -2 21 0 15 8 -25 25 -13 20 15 -2 15 -2 21 0 15 3 -7 8 -13 11 -13 13 0 30 50 26 73 -4 18 -3 19 4 3 8 -17 9 -17 24 7 9 13 15 35 12 48 -4 19 -3 20 4 5 7 -17 9 -16 26 8 10 16 15 36 11 49 -5 17 -4 19 4 7 9 -13 12 -12 26 5 8 12 13 30 10 45 -4 19 -3 21 4 10 9 -13 12 -12 26 5 8 12 13 30 10 45 -4 19 -3 21 4 10 9 -13 12 -12 26 5 8 12 13 30 10 45 -4 19 -3 21 4 10 9 -13 12 -12 26 5 8 12 13 30 10 45 -4 19 -3 21 4 10 9 -13 12 -12 26 5 8 12 13 30 10 45 -4 19 -3 21 4 10 9 -13 12 -12 26 5 8 12 13 30 10 45 -4 19 -3 21 4 10 9 -13 12 -12 26 5 8 12 13 30 10 45 -4 19 -3 21 4 10 9 -13 12 -12 26 5 8 12 13 30 10 45 -4 19 -3 21 4 10 9 -13 12 -12 26 5 8 11 13 31 10 45 -2 14 -2 19 1 13 11 -25 26 -13 20 15 -3 15 -3 21 0 15 11 -25 26 -13 20 15 -3 15 -3 21 0 15 9 -21 27 -15 21 6 -3 14 -1 18 9 14 9 -3 14 1 14 12 0 10 6 15 18 13 16 -3 17 -50 20 -801 1 -520 6 -797 12 -797 7 0 11 274 12 788 l3 787 5 -785 5 -785 215 0 215 0 5 530 5 530 3 -547 c1 -354 6 -548 12 -548 6 0 11 195 12 551 l3 551 365 -1 c200 -1 366 -3 367 -5 2 -2 3 -447 3 -989 0 -642 4 -987 10 -987 7 0 11 347 12 988 l3 987 2 -972 3 -973 320 0 320 0 3 973 2 972 3 -987 c1 -641 5 -988 12 -988 6 0 10 342 10 978 0 537 0 983 0 990 0 9 79 12 361 12 l360 0 -5 -432 c-7 -514 -13 -703 -26 -742 -6 -16 -10 -60 -10 -97 0 -37 -4 -71 -10 -74 -6 -3 -10 -30 -10 -60 0 -30 -4 -57 -10 -60 -5 -3 -10 -21 -10 -40 0 -19 -4 -37 -10 -40 -5 -3 -10 -19 -10 -35 0 -16 -4 -32 -10 -35 -6 -3 -10 -14 -10 -25 0 -10 -14 -44 -30 -75 -18 -34 -28 -66 -25 -79 3 -12 2 -15 -1 -8 -11 23 -26 12 -20 -15 3 -16 3 -22 0 -15 -11 24 -26 12 -20 -15 3 -16 3 -22 0 -15 -10 21 -26 13 -19 -10 5 -17 4 -19 -4 -9 -8 13 -13 11 -29 -10 -15 -17 -17 -26 -9 -32 7 -5 0 -6 -15 -3 -28 6 -39 -7 -15 -18 6 -3 0 -3 -14 0 -15 3 -30 1 -33 -5 -4 -6 -16 -11 -27 -11 -26 0 -24 -18 4 -22 12 -3 -5 -5 -38 -5 -73 -1 -135 -12 -135 -24 0 -5 5 -9 12 -9 9 0 9 -3 0 -12 -17 -17 -17 -1159 0 -1176 9 -9 9 -12 0 -12 -7 0 -12 -4 -12 -10 0 -6 87 -10 240 -10 153 0 240 4 240 10 0 6 -82 10 -225 10 -124 0 -225 3 -225 8 0 4 101 6 225 4 l225 -3 3 338 2 338 3 -352 c1 -224 6 -353 12 -353 6 0 11 132 12 360 l3 360 835 0 835 0 3 -360 c1 -228 6 -360 12 -360 6 0 11 130 12 358 l3 357 5 -340 5 -340 225 0 225 0 3 587 2 588 -162 3 -163 3 163 2 c100 1 162 6 162 12 0 6 -62 10 -165 10 l-165 0 0 1010 c0 667 -3 1010 -10 1010 -7 0 -10 -342 -10 -1007 0 -553 -2 -1004 -5 -1001 -3 2 -5 449 -5 991 l0 987 -870 0 -870 0 -3 -387 -2 -388 -3 393 -2 392 876 0 c581 0 873 3 869 10 -4 7 -312 10 -891 10 -700 0 -884 3 -884 13 -1 6 -2 111 -3 232 l-2 220 -775 3 c-426 1 -908 3 -1070 5 -162 1 188 3 778 5 706 1 1072 5 1072 12 0 7 -365 10 -1075 10 l-1075 0 0 440 c0 287 -3 440 -10 440 -6 0 -11 -154 -12 -437 l-3 -438 -2 423 -3 423 -245 -3 c-135 -2 -245 0 -245 5 0 4 -5 7 -11 7 -7 0 -9 -11 -5 -27 3 -16 3 -22 0 -15 -11 24 -26 12 -20 -15 3 -16 3 -22 0 -15 -11 24 -26 12 -20 -15 3 -16 3 -22 0 -15 -11 24 -26 12 -20 -15 3 -16 3 -22 0 -15 -11 24 -26 12 -20 -15 3 -16 3 -22 0 -15 -11 24 -26 12 -20 -15 3 -16 3 -22 0 -15 -11 24 -26 12 -20 -15 3 -16 3 -22 0 -15 -11 24 -26 12 -20 -15 3 -16 3 -22 0 -15 -11 24 -26 12 -20 -15 3 -16 3 -22 0 -15 -11 24 -26 12 -20 -15 3 -16 3 -22 0 -15 -11 24 -26 12 -20 -15 3 -16 3 -22 0 -15 -11 24 -26 12 -20 -15 3 -16 3 -22 0 -15 -10 23 -26 12 -21 -15 2 -16 2 -22 0 -15 -9 27 -24 11 -19 -20 4 -21 3 -26 -2 -14 -8 17 -9 17 -24 -7 -9 -13 -15 -35 -12 -48 4 -19 3 -20 -4 -5 -8 17 -9 17 -24 -7 -9 -13 -15 -35 -12 -48 4 -19 3 -20 -4 -5 -7 17 -9 16 -26 -8 -10 -16 -15 -36 -11 -49 5 -17 4 -19 -4 -7 -9 13 -12 12 -26 -5 -8 -12 -13 -30 -10 -45 4 -19 3 -21 -4 -10 -9 13 -12 12 -26 -5 -8 -12 -13 -30 -10 -45 4 -19 3 -21 -4 -10 -9 13 -12 12 -26 -5 -8 -12 -13 -30 -10 -45 4 -19 3 -21 -4 -10 -9 13 -12 12 -26 -5 -8 -12 -13 -30 -10 -45 4 -19 3 -21 -4 -10 -9 13 -12 12 -26 -5 -8 -12 -13 -30 -10 -45 4 -19 3 -21 -4 -10 -9 13 -12 12 -26 -5 -8 -12 -13 -30 -10 -45 4 -19 3 -21 -4 -10 -9 13 -12 12 -26 -5 -8 -12 -13 -30 -10 -45 4 -19 3 -21 -4 -10 -9 13 -12 12 -26 -5 -8 -12 -13 -30 -10 -45 4 -19 3 -21 -4 -10 -9 13 -12 12 -26 -5 -8 -11 -13 -31 -10 -45 2 -14 2 -19 -1 -12 -11 24 -26 12 -20 -15 3 -16 3 -22 0 -15 -11 24 -26 12 -20 -15 3 -16 3 -22 0 -15 -11 24 -26 12 -20 -15 3 -16 3 -22 0 -15 -11 24 -26 12 -20 -15 3 -16 3 -22 0 -15 -11 24 -26 12 -20 -15 3 -16 3 -22 0 -15 -11 24 -26 12 -20 -15 3 -16 3 -22 0 -15 -11 24 -26 12 -20 -15 3 -16 3 -22 0 -15 -11 24 -26 12 -20 -15 3 -16 3 -22 0 -15 -11 24 -26 12 -20 -15 3 -16 3 -22 0 -15 -11 24 -26 12 -20 -15 3 -16 3 -22 0 -15 -11 24 -26 12 -20 -15 3 -16 3 -22 0 -15 -11 24 -26 12 -20 -15 3 -16 3 -22 0 -15 -11 24 -26 12 -20 -15 5 -20 4 -24 -3 -13 -6 8 -11 12 -13 10 -20 -31 -27 -53 -22 -62 5 -8 1 -9 -10 -5 -10 4 -22 7 -27 7 -5 0 -9 325 -9 810 0 533 -3 810 -10 810 -7 0 -11 -274 -12 -797z m2200 -580 c-98 -2 -258 -2 -355 0 -98 1 -18 2 177 2 195 0 275 -1 178 -2z m1409 0 c-98 -2 -256 -2 -350 0 -95 1 -14 3 178 2 193 0 270 -1 172 -2z m1276 -500 c-100 -2 -266 -2 -370 0 -103 1 -21 2 182 2 204 0 288 -1 188 -2z m192 -773 l0 -745 -377 -3 -378 -2 0 750 0 750 378 -2 377 -3 0 -745z m-778 -367 c-1 -203 -2 -37 -2 367 0 404 1 570 2 368 2 -203 2 -533 0 -735z m810 0 c-1 -203 -2 -37 -2 367 0 404 1 570 2 368 2 -203 2 -533 0 -735z m-1300 535 c-1 -40 -3 -8 -3 72 0 80 2 112 3 73 2 -40 2 -106 0 -145z m-20 -215 c-2 -21 -4 -4 -4 37 0 41 2 58 4 38 2 -21 2 -55 0 -75z m-20 -130 c-2 -16 -4 -3 -4 27 0 30 2 43 4 28 2 -16 2 -40 0 -55z m-20 -90 c-3 -10 -5 -2 -5 17 0 19 2 27 5 18 2 -10 2 -26 0 -35z m-20 -70 c-3 -10 -5 -4 -5 12 0 17 2 24 5 18 2 -7 2 -21 0 -30z m-20 -65 c-3 -7 -5 -2 -5 12 0 14 2 19 5 13 2 -7 2 -19 0 -25z m-20 -50 c-3 -8 -6 -5 -6 6 -1 11 2 17 5 13 3 -3 4 -12 1 -19z m-20 -40 c-3 -8 -6 -5 -6 6 -1 11 2 17 5 13 3 -3 4 -12 1 -19z m-20 -40 c-3 -8 -6 -5 -6 6 -1 11 2 17 5 13 3 -3 4 -12 1 -19z m-269 -225 c-10 -2 -26 -2 -35 0 -10 3 -2 5 17 5 19 0 27 -2 18 -5z m-68 -17 c0 -2 -7 -6 -15 -10 -8 -3 -15 -1 -15 4 0 6 7 10 15 10 8 0 15 -2 15 -4z m1573 -3 c-100 -2 -266 -2 -370 0 -103 1 -21 2 182 2 204 0 288 -1 188 -2z m129 -470 c-228 -2 -597 -2 -820 0 -224 1 -38 2 413 2 451 0 634 -1 407 -2z"/>
<path d="M3510 7239 c0 -5 99 -9 245 -9 161 0 245 4 245 10 0 7 -83 10 -245 10 -145 -1 -245 -5 -245 -11z"/>
<path d="M1940 4760 c0 -6 83 -10 230 -10 147 0 230 4 230 10 0 6 -83 10 -230 10 -147 0 -230 -4 -230 -10z"/>
<path d="M2410 4760 c0 -5 5 -10 10 -10 6 0 10 5 10 10 0 6 -4 10 -10 10 -5 0 -10 -4 -10 -10z"/>
<path d="M3530 4759 c0 -5 96 -9 235 -9 154 0 235 4 235 10 0 7 -80 10 -235 10 -138 -1 -235 -5 -235 -11z"/>
<path d="M4800 3880 c0 -6 113 -10 320 -10 207 0 320 4 320 10 0 6 -113 10 -320 10 -207 0 -320 -4 -320 -10z"/>
<path d="M8330 3230 c0 -407 3 -620 10 -620 7 0 10 213 10 620 0 407 -3 620 -10 620 -7 0 -10 -213 -10 -620z"/>
<path d="M7860 2620 c0 -6 83 -10 230 -10 147 0 230 4 230 10 0 6 -83 10 -230 10 -147 0 -230 -4 -230 -10z"/>
</g>
</g>
</svg>
